<svg width="24" height="24" viewBox="0 0 24 24" fill="none" xmlns="http://www.w3.org/2000/svg">
<g clip-path="url(#clip0_529_16548)">
<path d="M10 2C10 0.895431 10.8954 0 12 0C13.1046 0 14 0.895431 14 2H10ZM14 22C14 23.1046 13.1046 24 12 24C10.8954 24 10 23.1046 10 22H14ZM10 22V17.7143H14V22H10ZM10 6.28571V2H14V6.28571H10Z" fill="white"/>
<path d="M22 10C23.1046 10 24 10.8954 24 12C24 13.1046 23.1046 14 22 14V10ZM2 14C0.89543 14 -4.76837e-07 13.1046 -4.76837e-07 12C-4.76837e-07 10.8954 0.89543 10 2 10V14ZM2 10L6.28571 10V14H2V10ZM17.7143 10H22V14H17.7143V10Z" fill="white"/>
<path d="M20.4853 17.6561C21.2663 18.4371 21.2663 19.7035 20.4853 20.4845C19.7042 21.2656 18.4379 21.2656 17.6569 20.4845L20.4853 17.6561ZM3.51472 6.34239C2.73368 5.56134 2.73368 4.29501 3.51472 3.51396C4.29577 2.73292 5.5621 2.73292 6.34315 3.51396L3.51472 6.34239ZM6.34315 3.51396L9.37361 6.54442L6.54518 9.37285L3.51472 6.34239L6.34315 3.51396ZM17.4548 14.6256L20.4853 17.6561L17.6569 20.4845L14.6264 17.4541L17.4548 14.6256Z" fill="white"/>
<path d="M6.34314 20.4845C5.56209 21.2656 4.29576 21.2656 3.51471 20.4845C2.73366 19.7035 2.73366 18.4371 3.51471 17.6561L6.34314 20.4845ZM17.6568 3.51396C18.4379 2.73292 19.7042 2.73292 20.4853 3.51396C21.2663 4.29501 21.2663 5.56134 20.4853 6.34239L17.6568 3.51396ZM20.4853 6.34239L17.4548 9.37285L14.6264 6.54442L17.6568 3.51396L20.4853 6.34239ZM9.3736 17.4541L6.34314 20.4845L3.51471 17.6561L6.54517 14.6256L9.3736 17.4541Z" fill="white"/>
<circle cx="12" cy="12" r="7" stroke="white" stroke-width="4"/>
<circle cx="12" cy="12" r="2" fill="white"/>
</g>
<defs>
<clipPath id="clip0_529_16548">
<rect width="24" height="24" fill="white"/>
</clipPath>
</defs>
</svg>
