<svg width="24" height="24" viewBox="0 0 24 24" fill="none" xmlns="http://www.w3.org/2000/svg">
<g clip-path="url(#clip0_529_16557)">
<circle cx="18" cy="6" r="4" stroke="white" stroke-width="4"/>
<path d="M2 4C0.895431 4 0 4.89543 0 6C0 7.10457 0.895431 8 2 8V4ZM14 4L2 4V8L14 8V4Z" fill="white"/>
<circle cx="10" cy="18" r="4" stroke="white" stroke-width="4"/>
<path d="M2 16C0.895431 16 0 16.8954 0 18C0 19.1046 0.895431 20 2 20L2 16ZM6 16H2L2 20H6V16Z" fill="white"/>
<path d="M22 20C23.1046 20 24 19.1046 24 18C24 16.8954 23.1046 16 22 16V20ZM14 20L22 20V16L14 16V20Z" fill="white"/>
</g>
<defs>
<clipPath id="clip0_529_16557">
<rect width="24" height="24" fill="white"/>
</clipPath>
</defs>
</svg>
