<svg width="24" height="24" viewBox="0 0 24 24" fill="none" xmlns="http://www.w3.org/2000/svg">
<path d="M4 2V0C2.89543 0 2 0.895431 2 2L4 2ZM14 2L15.4142 0.585786C15.0391 0.210714 14.5304 0 14 0V2ZM4 22H2C2 23.1046 2.89543 24 4 24V22ZM20 22V24C21.1046 24 22 23.1046 22 22H20ZM20 8H22C22 7.46957 21.7893 6.96086 21.4142 6.58579L20 8ZM8 22V24H10V22H8ZM16 22H14V24H16V22ZM4 4H14V0H4V4ZM6 22V2H2V22H6ZM18 8V22H22V8H18ZM12.5858 3.41421L18.5858 9.41421L21.4142 6.58579L15.4142 0.585786L12.5858 3.41421ZM8 20H4V24H8V20ZM20 20H16V24H20V20ZM18 22V18H14V22H18ZM10 22V18H6V22H10Z" fill="white"/>
<path d="M14 4H6V18L12 12L18 18V8L14 4Z" fill="white"/>
</svg>
